<mxfile host="app.diagrams.net" modified="2023-09-23T12:05:12.917Z" agent="Mozilla/5.0 (Windows NT 10.0; Win64; x64) AppleWebKit/537.36 (KHTML, like Gecko) Chrome/117.0.0.0 Safari/537.36 Edg/117.0.2045.40" version="21.8.1" etag="UZBgkQcoQjDVj4T6kdxi" type="github">
  <diagram name="Page-1" id="pjQR4upwTWRU38coTwXb">
    <mxGraphModel>
      <root>
        <mxCell id="0" />
        <mxCell id="1" parent="0" />
      </root>
    </mxGraphModel>
  </diagram>
</mxfile>
